<?xml version="1.0" encoding="UTF-8" standalone="no"?>
<svg width="1920" height="1080" viewBox="0 0 1920 1080" xmlns="http://www.w3.org/2000/svg">
  <!-- Background gradient -->
  <defs>
    <linearGradient id="bg-gradient" x1="0%" y1="0%" x2="100%" y2="100%">
      <stop offset="0%" stop-color="#1a365d" />
      <stop offset="100%" stop-color="#2563eb" />
    </linearGradient>
    
    <!-- Car silhouettes -->
    <path id="car-silhouette-1" d="M50,70 C60,62 70,60 80,60 C100,60 110,65 120,70 C125,72 130,75 135,75 C140,75 143,73 150,67 C160,58 170,55 180,55 C200,55 220,60 230,65 C240,70 250,75 260,75 C270,75 280,70 290,65 C295,62 295,60 300,60 L310,60 C315,60 320,65 320,70 L320,80 C320,85 315,90 310,90 L50,90 C45,90 40,85 40,80 L40,80 C40,75 45,72 50,70 Z" />
    
    <path id="car-silhouette-2" d="M30,75 C40,65 60,60 80,60 C90,60 95,62 100,65 C105,68 110,70 120,70 C130,70 135,65 140,60 C145,55 155,50 165,50 C185,50 195,60 210,65 C220,68 230,70 240,70 C245,70 255,68 260,65 C265,62 270,60 280,60 C290,60 300,65 310,75 L310,80 C310,85 305,90 300,90 L40,90 C35,90 30,85 30,80 L30,75 Z" />
  </defs>
  
  <!-- Base background -->
  <rect width="100%" height="100%" fill="url(#bg-gradient)" />
  
  <!-- Abstract shapes -->
  <rect x="0" y="400" width="1920" height="680" fill="#0f172a" opacity="0.7" />
  
  <!-- Road -->
  <rect x="0" y="850" width="1920" height="230" fill="#1e293b" />
  
  <!-- Road markings -->
  <rect x="100" y="965" width="120" height="15" fill="white" opacity="0.8" rx="2" />
  <rect x="340" y="965" width="120" height="15" fill="white" opacity="0.8" rx="2" />
  <rect x="580" y="965" width="120" height="15" fill="white" opacity="0.8" rx="2" />
  <rect x="820" y="965" width="120" height="15" fill="white" opacity="0.8" rx="2" />
  <rect x="1060" y="965" width="120" height="15" fill="white" opacity="0.8" rx="2" />
  <rect x="1300" y="965" width="120" height="15" fill="white" opacity="0.8" rx="2" />
  <rect x="1540" y="965" width="120" height="15" fill="white" opacity="0.8" rx="2" />
  <rect x="1780" y="965" width="120" height="15" fill="white" opacity="0.8" rx="2" />
  
  <!-- Buildings -->
  <rect x="100" y="300" width="150" height="550" fill="#475569" opacity="0.9" />
  <rect x="320" y="400" width="180" height="450" fill="#334155" opacity="0.9" />
  <rect x="580" y="200" width="120" height="650" fill="#1e293b" opacity="0.9" />
  <rect x="780" y="350" width="200" height="500" fill="#475569" opacity="0.9" />
  <rect x="1050" y="150" width="100" height="700" fill="#334155" opacity="0.9" />
  <rect x="1200" y="250" width="150" height="600" fill="#1e293b" opacity="0.9" />
  <rect x="1400" y="350" width="180" height="500" fill="#475569" opacity="0.9" />
  <rect x="1650" y="200" width="140" height="650" fill="#334155" opacity="0.9" />
  
  <!-- Building windows -->
  <rect x="120" y="330" width="30" height="40" fill="#94a3b8" rx="2" />
  <rect x="170" y="330" width="30" height="40" fill="#94a3b8" rx="2" />
  <rect x="120" y="390" width="30" height="40" fill="#94a3b8" rx="2" />
  <rect x="170" y="390" width="30" height="40" fill="#94a3b8" rx="2" />
  <!-- More windows would be added similarly -->
  
  <!-- Cars on the road -->
  <g transform="translate(200, 880) scale(0.9)">
    <use href="#car-silhouette-1" fill="#ef4444" />
  </g>
  <g transform="translate(500, 900) scale(0.7)">
    <use href="#car-silhouette-2" fill="#3b82f6" />
  </g>
  <g transform="translate(900, 885) scale(0.85)">
    <use href="#car-silhouette-1" fill="#22c55e" />
  </g>
  <g transform="translate(1400, 895) scale(0.75)">
    <use href="#car-silhouette-2" fill="#eab308" />
  </g>
  <g transform="translate(1700, 880) scale(0.9)">
    <use href="#car-silhouette-1" fill="#a855f7" />
  </g>
  
  <!-- Light effect overlays -->
  <circle cx="300" cy="400" r="100" fill="white" opacity="0.05" />
  <circle cx="1200" cy="300" r="150" fill="white" opacity="0.03" />
  <circle cx="1600" cy="400" r="120" fill="white" opacity="0.04" />
  
  <!-- Subtle pattern overlay -->
  <rect width="100%" height="100%" fill="url(#dots)" opacity="0.2" />
</svg>